# xmcd
#
# Track frame offsets:
#	150
#	18450
#	38075
#	63328
#	87125
#	117382
#	137842
#	166970
#	188345
#
# Disc length: 2575 seconds
#
# Revision: 1
# Processed by: cddbd v1.5.2PL0 Copyright (c) Steve Scherf et al.
# Submitted via: audiograbber 1.83.01
#
DISCID=6c0a0d09
DTITLE=Cella'Door - Dämerung
DYEAR=2015
DGENRE=Gothic
TTITLE0=Per Portam Cellae...
TTITLE1=Augenblick
TTITLE2=Das Ritual (2012)
TTITLE3=Licht
TTITLE4=Die Engel
TTITLE5=Nach der Schlacht (2012)
TTITLE6=KÔJÔ NO TSUKI
TTITLE7=Dämmerung
TTITLE8=ad dubiam lucem
EXTD=
EXTT0=
EXTT1=
EXTT2=
EXTT3=
EXTT4=
EXTT5=
EXTT6=
EXTT7=
EXTT8=
PLAYORDER=
